<svg width="1284" height="644" viewBox="0 0 1284 644" fill="none" xmlns="http://www.w3.org/2000/svg">
<mask id="mask0_1401_1739" style="mask-type:luminance" maskUnits="userSpaceOnUse" x="2" y="2" width="1280" height="640">
<path d="M1282 2H2V642H1282V2Z" fill="white"/>
</mask>
<g mask="url(#mask0_1401_1739)">
<mask id="mask1_1401_1739" style="mask-type:luminance" maskUnits="userSpaceOnUse" x="-33" y="2" width="1724" height="985">
<path d="M1691 2H-33V987H1691V2Z" fill="white"/>
</mask>
<g mask="url(#mask1_1401_1739)">
<path d="M145.243 420.524C229.585 420.524 297.958 351.076 297.958 265.408C297.958 179.739 229.585 110.291 145.243 110.291C60.9007 110.291 -7.47217 179.739 -7.47217 265.408C-7.47217 351.076 60.9007 420.524 145.243 420.524Z" fill="#2C8A5D" stroke="#2C8A5D" stroke-width="2" stroke-miterlimit="10"/>
<path d="M1021.73 588.965C1106.07 588.965 1174.44 519.517 1174.44 433.849C1174.44 348.18 1106.07 278.732 1021.73 278.732C937.386 278.732 869.014 348.18 869.014 433.849C869.014 519.517 937.386 588.965 1021.73 588.965Z" fill="#2C8A5D" stroke="#2C8A5D" stroke-width="2" stroke-miterlimit="10"/>
<path d="M1253.45 88.0107C1284.43 88.0107 1309.54 62.503 1309.54 31.0376C1309.54 -0.427803 1284.43 -25.9355 1253.45 -25.9355C1222.47 -25.9355 1197.36 -0.427803 1197.36 31.0376C1197.36 62.503 1222.47 88.0107 1253.45 88.0107Z" fill="#2C8A5D" stroke="#2C8A5D" stroke-width="2" stroke-miterlimit="10"/>
<path d="M191.284 637.14C363.896 670.312 530.301 555.072 562.959 379.746" stroke="#2C8A5D" stroke-width="2" stroke-miterlimit="10"/>
<path d="M1067.53 31.315C1079.28 -31.7734 1038.45 -92.5935 976.34 -104.529" stroke="#2C8A5D" stroke-width="2" stroke-miterlimit="10"/>
<path d="M1067.53 31.3152C1079.28 -31.7732 1139.16 -73.2399 1201.27 -61.304" stroke="#2C8A5D" stroke-width="2" stroke-miterlimit="10"/>
<path d="M1200.81 -61.3848C1238.02 -54.2335 1262.48 -17.794 1255.44 20.0045" stroke="#2C8A5D" stroke-width="2" stroke-miterlimit="10"/>
<path d="M563.367 379.825C590.054 236.556 726.032 142.388 867.082 169.494" stroke="#2C8A5D" stroke-width="2" stroke-miterlimit="10"/>
<path d="M563.307 379.813C589.994 236.544 497.283 98.428 356.233 71.3223" stroke="#2C8A5D" stroke-width="2" stroke-miterlimit="10"/>
<path d="M356.22 71.3117C262.985 53.3947 201.704 -37.9011 219.344 -132.602" stroke="#2C8A5D" stroke-width="2" stroke-miterlimit="10"/>
<path d="M356.219 71.3197C262.985 53.4027 173.102 115.647 155.463 210.349" stroke="#2C8A5D" stroke-width="2" stroke-miterlimit="10"/>
<path d="M866.861 169.451C960.095 187.368 1021.38 278.664 1003.74 373.364" stroke="#2C8A5D" stroke-width="2" stroke-miterlimit="10"/>
<path d="M866.862 169.443C960.097 187.36 1049.98 125.115 1067.62 30.4141" stroke="#2C8A5D" stroke-width="2" stroke-miterlimit="10"/>
<path d="M1159.26 489.332C1283.32 529.208 1415.72 459.377 1454.98 333.361C1494.24 207.345 1425.49 72.8635 1301.42 32.9883" stroke="#2C8A5D" stroke-width="2" stroke-miterlimit="10"/>
<path d="M865.568 -109.047C713.86 -103.626 595.203 25.6866 600.541 179.781C605.878 333.875 733.189 454.398 884.896 448.977" stroke="#2C8A5D" stroke-width="2" stroke-miterlimit="10"/>
<path d="M162.996 651.822C177.874 651.822 189.935 639.571 189.935 624.46C189.935 609.348 177.874 597.098 162.996 597.098C148.119 597.098 136.058 609.348 136.058 624.46C136.058 639.571 148.119 651.822 162.996 651.822Z" fill="#2C8A5D" stroke="#2C8A5D" stroke-width="2" stroke-miterlimit="10"/>
</g>
</g>
<path d="M2 1H1V2V642V643H2H1282H1283V642V2V1H1282H2Z" fill="#CCD6C4" fill-opacity="0.9" stroke="black" stroke-width="2"/>
<g clip-path="url(#clip0_1401_1739)">
<path d="M1031.75 421.271H1016V538.867H1031.75V421.271Z" fill="black"/>
<path d="M1090.38 495.968H1082.27C1065.52 495.968 1051.9 482.453 1051.9 465.838V421.234H1098.5C1115.25 421.234 1128.88 434.749 1128.88 451.365V463.029H1113.13V451.365C1113.13 443.367 1106.57 436.856 1098.5 436.856H1067.65V465.838C1067.65 473.835 1074.21 480.347 1082.27 480.347H1090.38V495.968ZM1130.45 508.635V494.6C1130.45 477.985 1116.83 464.47 1100.07 464.47H1090.38V480.091H1100.07C1108.14 480.091 1114.7 486.603 1114.7 494.6V508.635C1114.7 516.633 1108.14 523.144 1100.07 523.144H1067.65V496.99H1051.9V538.766H1100.07C1116.83 538.766 1130.45 525.251 1130.45 508.635Z" fill="black"/>
<path d="M1184.09 540.999H1181.47C1161.13 540.999 1144.57 524.575 1144.57 504.394V455.596C1144.57 435.414 1161.13 418.99 1181.47 418.99H1184.09C1204.44 418.99 1221 435.414 1221 455.596H1205.25C1205.25 444.032 1195.76 434.621 1184.1 434.621H1181.48C1169.82 434.621 1160.33 444.032 1160.33 455.596V504.394C1160.33 515.957 1169.82 525.369 1181.48 525.369H1184.1C1195.76 525.369 1205.25 515.957 1205.25 504.394H1221C1221 524.575 1204.44 540.999 1184.09 540.999Z" fill="black"/>
<path d="M1184.09 540.999H1181.47C1161.13 540.999 1144.57 524.575 1144.57 504.394V455.596C1144.57 435.414 1161.13 418.99 1181.47 418.99H1184.09C1204.44 418.99 1221 435.414 1221 455.596H1205.25C1205.25 444.032 1195.76 434.621 1184.1 434.621H1181.48C1169.82 434.621 1160.33 444.032 1160.33 455.596V504.394C1160.33 515.957 1169.82 525.369 1181.48 525.369H1184.1C1195.76 525.369 1205.25 515.957 1205.25 504.394H1221C1221 524.575 1204.44 540.999 1184.09 540.999Z" fill="black"/>
</g>
<path d="M45.568 371.368V366.728H80.032V371.368H65.76V413H60.736V371.368H45.568ZM86.6825 413V365.448H91.5145V384.776C92.0905 383.837 92.8585 382.963 93.8185 382.152C94.7998 381.341 95.9732 380.691 97.3385 380.2C98.7252 379.688 100.304 379.432 102.075 379.432C104.251 379.432 106.203 379.827 107.931 380.616C109.68 381.405 111.067 382.525 112.091 383.976C113.115 385.427 113.627 387.133 113.627 389.096V413H108.635V390.216C108.635 388.125 107.92 386.504 106.491 385.352C105.061 384.179 103.173 383.592 100.827 383.592C99.2265 383.592 97.7225 383.859 96.3145 384.392C94.9278 384.904 93.8078 385.683 92.9545 386.728C92.1012 387.752 91.6745 389.064 91.6745 390.664V413H86.6825ZM126.635 397.608C126.635 399.827 126.998 401.843 127.724 403.656C128.449 405.469 129.569 406.92 131.084 408.008C132.598 409.096 134.518 409.64 136.844 409.64C139.084 409.64 141.014 409.117 142.636 408.072C144.257 407.005 145.27 405.501 145.676 403.56H150.476C150.07 405.779 149.185 407.635 147.82 409.128C146.476 410.621 144.844 411.752 142.924 412.52C141.025 413.267 139.02 413.64 136.908 413.64C133.878 413.64 131.201 412.979 128.876 411.656C126.572 410.312 124.769 408.381 123.468 405.864C122.188 403.347 121.548 400.317 121.548 396.776C121.548 393.256 122.134 390.184 123.308 387.56C124.481 384.915 126.177 382.877 128.396 381.448C130.636 379.997 133.334 379.272 136.492 379.272C139.542 379.272 142.124 379.933 144.236 381.256C146.348 382.557 147.958 384.424 149.068 386.856C150.177 389.288 150.732 392.189 150.732 395.56V397.608H126.635ZM126.668 394.056H145.868C145.868 392.008 145.526 390.163 144.844 388.52C144.161 386.877 143.126 385.576 141.74 384.616C140.353 383.656 138.593 383.176 136.46 383.176C134.198 383.176 132.342 383.72 130.892 384.808C129.462 385.875 128.396 387.24 127.692 388.904C126.988 390.568 126.646 392.285 126.668 394.056ZM207.438 413H202.094L193.39 392.488H180.11V413H175.118V366.728H192.59C195.833 366.728 198.553 367.219 200.75 368.2C202.969 369.16 204.633 370.557 205.742 372.392C206.873 374.227 207.438 376.445 207.438 379.048C207.438 381.565 206.969 383.667 206.03 385.352C205.113 387.016 203.95 388.349 202.542 389.352C201.134 390.333 199.683 391.069 198.19 391.56L207.438 413ZM190.606 388.2C194.361 388.2 197.241 387.485 199.246 386.056C201.273 384.605 202.286 382.387 202.286 379.4C202.286 376.52 201.401 374.397 199.63 373.032C197.859 371.645 195.385 370.952 192.206 370.952H180.11V388.2H190.606ZM228.405 413.64C226.634 413.619 224.981 413.373 223.445 412.904C221.909 412.413 220.554 411.699 219.381 410.76C218.229 409.8 217.322 408.616 216.661 407.208C216.021 405.779 215.701 404.125 215.701 402.248V379.912H220.693V401.8C220.693 404.125 221.397 406.013 222.805 407.464C224.213 408.893 226.378 409.608 229.301 409.608C231.904 409.608 233.994 408.936 235.573 407.592C237.152 406.227 237.941 404.168 237.941 401.416V379.912H242.901V413H238.869L238.357 406.728C237.973 408.307 237.301 409.608 236.341 410.632C235.402 411.656 234.25 412.424 232.885 412.936C231.541 413.427 230.048 413.661 228.405 413.64ZM264.012 413.64C261.708 413.64 259.585 413.288 257.644 412.584C255.724 411.859 254.135 410.76 252.876 409.288C251.639 407.795 250.86 405.896 250.54 403.592H255.18C255.479 404.915 256.023 406.035 256.812 406.952C257.601 407.869 258.604 408.573 259.82 409.064C261.057 409.533 262.455 409.768 264.012 409.768C266.359 409.768 268.247 409.32 269.676 408.424C271.105 407.507 271.82 406.109 271.82 404.232C271.82 402.931 271.447 401.885 270.7 401.096C269.975 400.307 268.865 399.731 267.372 399.368L260.236 397.544C257.633 396.883 255.564 395.891 254.028 394.568C252.492 393.224 251.713 391.357 251.692 388.968C251.692 387.069 252.14 385.395 253.036 383.944C253.953 382.493 255.319 381.352 257.132 380.52C258.945 379.688 261.217 379.272 263.948 379.272C267.425 379.272 270.231 380.051 272.364 381.608C274.497 383.165 275.628 385.491 275.756 388.584H271.212C270.999 386.899 270.273 385.565 269.036 384.584C267.799 383.581 266.092 383.08 263.916 383.08C261.676 383.08 259.852 383.539 258.444 384.456C257.057 385.373 256.364 386.792 256.364 388.712C256.364 389.992 256.844 390.995 257.804 391.72C258.764 392.424 260.161 393.011 261.996 393.48L268.972 395.304C270.423 395.688 271.617 396.2 272.556 396.84C273.516 397.459 274.273 398.163 274.828 398.952C275.404 399.72 275.809 400.541 276.044 401.416C276.3 402.291 276.428 403.133 276.428 403.944C276.428 405.928 275.948 407.645 274.988 409.096C274.028 410.547 272.62 411.667 270.764 412.456C268.929 413.245 266.679 413.64 264.012 413.64ZM300.225 383.656H292.737V405C292.737 406.28 292.854 407.219 293.089 407.816C293.345 408.392 293.782 408.765 294.401 408.936C295.041 409.085 295.926 409.16 297.057 409.16H300.449V412.616C300.044 412.765 299.436 412.893 298.625 413C297.836 413.085 296.886 413.128 295.777 413.128C293.665 413.128 292.022 412.829 290.849 412.232C289.697 411.635 288.886 410.749 288.417 409.576C287.948 408.403 287.713 406.931 287.713 405.16V383.656H282.337V379.912H287.841L289.025 370.376H292.737V379.88H300.225V383.656ZM329.845 379.912V413H324.981V379.912H329.845ZM330.005 366.76V372.264H324.757V366.76H330.005ZM341.183 413V379.912H345.983V384.744C346.857 383.272 348.073 381.992 349.631 380.904C351.209 379.816 353.279 379.272 355.839 379.272C357.076 379.272 358.324 379.475 359.583 379.88C360.841 380.285 361.993 380.893 363.039 381.704C364.084 382.515 364.884 383.517 365.439 384.712C366.463 383.048 367.849 381.725 369.599 380.744C371.348 379.763 373.332 379.272 375.551 379.272C376.703 379.272 377.897 379.443 379.135 379.784C380.393 380.125 381.567 380.733 382.655 381.608C383.743 382.461 384.617 383.688 385.279 385.288C385.961 386.867 386.303 388.904 386.303 391.4V413H381.311V391.848C381.311 389.651 380.969 387.965 380.287 386.792C379.604 385.597 378.719 384.765 377.631 384.296C376.543 383.827 375.38 383.592 374.143 383.592C373.033 383.592 371.86 383.805 370.623 384.232C369.407 384.637 368.361 385.352 367.487 386.376C366.633 387.4 366.207 388.819 366.207 390.632V413H361.215V389.864C361.215 388.477 360.841 387.325 360.095 386.408C359.369 385.469 358.463 384.765 357.375 384.296C356.287 383.827 355.199 383.592 354.111 383.592C352.916 383.592 351.7 383.827 350.463 384.296C349.247 384.765 348.223 385.523 347.391 386.568C346.58 387.613 346.175 388.968 346.175 390.632V413H341.183ZM395.995 423.304V379.912H400.955L401.051 385.96C401.371 385.299 401.819 384.584 402.395 383.816C402.992 383.048 403.739 382.323 404.635 381.64C405.531 380.936 406.587 380.371 407.803 379.944C409.04 379.496 410.459 379.272 412.059 379.272C414.747 379.272 417.115 379.869 419.163 381.064C421.211 382.259 422.8 384.093 423.931 386.568C425.083 389.043 425.659 392.179 425.659 395.976C425.659 399.688 425.115 402.867 424.027 405.512C422.96 408.136 421.392 410.152 419.323 411.56C417.254 412.947 414.726 413.64 411.739 413.64C410.139 413.64 408.742 413.416 407.547 412.968C406.352 412.52 405.328 411.933 404.475 411.208C403.622 410.483 402.918 409.736 402.363 408.968C401.808 408.179 401.36 407.432 401.019 406.728V423.304H395.995ZM410.907 409.64C413.83 409.64 416.198 408.541 418.011 406.344C419.846 404.147 420.763 400.755 420.763 396.168C420.763 392.243 419.931 389.117 418.267 386.792C416.624 384.445 414.171 383.272 410.907 383.272C407.664 383.272 405.19 384.456 403.483 386.824C401.798 389.192 400.955 392.307 400.955 396.168C400.955 398.685 401.328 400.968 402.075 403.016C402.843 405.043 403.963 406.653 405.435 407.848C406.907 409.043 408.731 409.64 410.907 409.64ZM441.552 413.352C439.973 413.352 438.672 413.128 437.648 412.68C436.645 412.211 435.856 411.571 435.28 410.76C434.725 409.949 434.341 409.021 434.128 407.976C433.914 406.931 433.808 405.832 433.808 404.68V365.448H438.736V404.264C438.736 406.077 439.077 407.411 439.76 408.264C440.442 409.096 441.338 409.544 442.448 409.608L444.304 409.64V412.904C443.834 413.053 443.354 413.16 442.864 413.224C442.373 413.309 441.936 413.352 441.552 413.352ZM455.135 397.608C455.135 399.827 455.498 401.843 456.224 403.656C456.949 405.469 458.069 406.92 459.584 408.008C461.098 409.096 463.018 409.64 465.344 409.64C467.584 409.64 469.514 409.117 471.136 408.072C472.757 407.005 473.77 405.501 474.176 403.56H478.976C478.57 405.779 477.685 407.635 476.32 409.128C474.976 410.621 473.344 411.752 471.424 412.52C469.525 413.267 467.52 413.64 465.408 413.64C462.378 413.64 459.701 412.979 457.376 411.656C455.072 410.312 453.269 408.381 451.968 405.864C450.688 403.347 450.048 400.317 450.048 396.776C450.048 393.256 450.634 390.184 451.808 387.56C452.981 384.915 454.677 382.877 456.896 381.448C459.136 379.997 461.834 379.272 464.992 379.272C468.042 379.272 470.624 379.933 472.736 381.256C474.848 382.557 476.458 384.424 477.568 386.856C478.677 389.288 479.232 392.189 479.232 395.56V397.608H455.135ZM455.168 394.056H474.368C474.368 392.008 474.026 390.163 473.344 388.52C472.661 386.877 471.626 385.576 470.24 384.616C468.853 383.656 467.093 383.176 464.96 383.176C462.698 383.176 460.842 383.72 459.392 384.808C457.962 385.875 456.896 387.24 456.192 388.904C455.488 390.568 455.146 392.285 455.168 394.056ZM487.745 413V379.912H492.545V384.744C493.42 383.272 494.636 381.992 496.193 380.904C497.772 379.816 499.841 379.272 502.401 379.272C503.638 379.272 504.886 379.475 506.145 379.88C507.404 380.285 508.556 380.893 509.601 381.704C510.646 382.515 511.446 383.517 512.001 384.712C513.025 383.048 514.412 381.725 516.161 380.744C517.91 379.763 519.894 379.272 522.113 379.272C523.265 379.272 524.46 379.443 525.697 379.784C526.956 380.125 528.129 380.733 529.217 381.608C530.305 382.461 531.18 383.688 531.841 385.288C532.524 386.867 532.865 388.904 532.865 391.4V413H527.873V391.848C527.873 389.651 527.532 387.965 526.849 386.792C526.166 385.597 525.281 384.765 524.193 384.296C523.105 383.827 521.942 383.592 520.705 383.592C519.596 383.592 518.422 383.805 517.185 384.232C515.969 384.637 514.924 385.352 514.049 386.376C513.196 387.4 512.769 388.819 512.769 390.632V413H507.777V389.864C507.777 388.477 507.404 387.325 506.657 386.408C505.932 385.469 505.025 384.765 503.937 384.296C502.849 383.827 501.761 383.592 500.673 383.592C499.478 383.592 498.262 383.827 497.025 384.296C495.809 384.765 494.785 385.523 493.953 386.568C493.142 387.613 492.737 388.968 492.737 390.632V413H487.745ZM545.885 397.608C545.885 399.827 546.248 401.843 546.974 403.656C547.699 405.469 548.819 406.92 550.334 408.008C551.848 409.096 553.768 409.64 556.094 409.64C558.334 409.64 560.264 409.117 561.886 408.072C563.507 407.005 564.52 405.501 564.926 403.56H569.726C569.32 405.779 568.435 407.635 567.07 409.128C565.726 410.621 564.094 411.752 562.174 412.52C560.275 413.267 558.27 413.64 556.158 413.64C553.128 413.64 550.451 412.979 548.126 411.656C545.822 410.312 544.019 408.381 542.718 405.864C541.438 403.347 540.798 400.317 540.798 396.776C540.798 393.256 541.384 390.184 542.558 387.56C543.731 384.915 545.427 382.877 547.646 381.448C549.886 379.997 552.584 379.272 555.742 379.272C558.792 379.272 561.374 379.933 563.486 381.256C565.598 382.557 567.208 384.424 568.318 386.856C569.427 389.288 569.982 392.189 569.982 395.56V397.608H545.885ZM545.918 394.056H565.118C565.118 392.008 564.776 390.163 564.094 388.52C563.411 386.877 562.376 385.576 560.99 384.616C559.603 383.656 557.843 383.176 555.71 383.176C553.448 383.176 551.592 383.72 550.142 384.808C548.712 385.875 547.646 387.24 546.942 388.904C546.238 390.568 545.896 392.285 545.918 394.056ZM578.495 413V379.912H583.295V384.744C583.85 383.784 584.607 382.899 585.567 382.088C586.548 381.277 587.732 380.627 589.119 380.136C590.527 379.645 592.106 379.4 593.855 379.4C595.988 379.4 597.93 379.827 599.679 380.68C601.45 381.512 602.858 382.813 603.903 384.584C604.948 386.355 605.471 388.627 605.471 391.4V413H600.479V391.848C600.479 389.032 599.764 386.952 598.335 385.608C596.906 384.264 595.018 383.592 592.671 383.592C591.071 383.592 589.567 383.848 588.159 384.36C586.751 384.872 585.62 385.651 584.767 386.696C583.914 387.741 583.487 389.053 583.487 390.632V413H578.495ZM629.413 383.656H621.925V405C621.925 406.28 622.042 407.219 622.277 407.816C622.533 408.392 622.97 408.765 623.589 408.936C624.229 409.085 625.114 409.16 626.245 409.16H629.637V412.616C629.231 412.765 628.623 412.893 627.812 413C627.023 413.085 626.074 413.128 624.965 413.128C622.853 413.128 621.21 412.829 620.037 412.232C618.885 411.635 618.074 410.749 617.605 409.576C617.135 408.403 616.901 406.931 616.901 405.16V383.656H611.525V379.912H617.029L618.213 370.376H621.925V379.88H629.413V383.656ZM647.176 413.64C645.021 413.64 643.133 413.267 641.512 412.52C639.891 411.752 638.621 410.664 637.704 409.256C636.808 407.848 636.36 406.152 636.36 404.168C636.36 400.499 637.608 397.779 640.104 396.008C642.621 394.237 646.685 393.277 652.296 393.128L658.696 392.936V390.184C658.696 388.029 658.035 386.312 656.712 385.032C655.411 383.731 653.395 383.091 650.664 383.112C648.616 383.112 646.835 383.592 645.32 384.552C643.827 385.491 642.877 387.005 642.472 389.096H637.928C638.056 387.027 638.643 385.267 639.688 383.816C640.733 382.344 642.205 381.224 644.104 380.456C646.003 379.667 648.275 379.272 650.92 379.272C653.651 379.272 655.944 379.677 657.8 380.488C659.677 381.277 661.096 382.472 662.056 384.072C663.016 385.651 663.496 387.613 663.496 389.96V413H659.208L658.856 406.632C657.533 409.256 655.848 411.08 653.8 412.104C651.773 413.128 649.565 413.64 647.176 413.64ZM648.584 409.896C649.779 409.896 650.963 409.683 652.136 409.256C653.331 408.829 654.419 408.243 655.4 407.496C656.381 406.749 657.171 405.917 657.768 405C658.365 404.083 658.675 403.144 658.696 402.184V396.296L653.352 396.392C650.557 396.435 648.264 396.712 646.472 397.224C644.701 397.736 643.379 398.525 642.504 399.592C641.651 400.637 641.224 402.013 641.224 403.72C641.224 405.661 641.907 407.176 643.272 408.264C644.637 409.352 646.408 409.896 648.584 409.896ZM688.35 383.656H680.862V405C680.862 406.28 680.979 407.219 681.214 407.816C681.47 408.392 681.907 408.765 682.526 408.936C683.166 409.085 684.051 409.16 685.182 409.16H688.574V412.616C688.169 412.765 687.561 412.893 686.75 413C685.961 413.085 685.011 413.128 683.902 413.128C681.79 413.128 680.147 412.829 678.974 412.232C677.822 411.635 677.011 410.749 676.542 409.576C676.073 408.403 675.838 406.931 675.838 405.16V383.656H670.462V379.912H675.966L677.15 370.376H680.862V379.88H688.35V383.656ZM702.908 379.912V413H698.044V379.912H702.908ZM703.068 366.76V372.264H697.82V366.76H703.068ZM726.672 413.64C723.685 413.64 721.061 413 718.8 411.72C716.56 410.419 714.821 408.499 713.584 405.96C712.346 403.421 711.728 400.296 711.728 396.584C711.728 393.128 712.293 390.099 713.424 387.496C714.576 384.893 716.261 382.877 718.48 381.448C720.698 379.997 723.44 379.272 726.704 379.272C729.69 379.272 732.282 379.933 734.48 381.256C736.698 382.557 738.416 384.499 739.632 387.08C740.869 389.64 741.488 392.808 741.488 396.584C741.488 399.955 740.933 402.92 739.824 405.48C738.714 408.04 737.061 410.045 734.864 411.496C732.688 412.925 729.957 413.64 726.672 413.64ZM726.704 409.608C728.773 409.608 730.533 409.096 731.984 408.072C733.456 407.048 734.576 405.555 735.344 403.592C736.133 401.629 736.528 399.251 736.528 396.456C736.528 393.939 736.186 391.688 735.504 389.704C734.821 387.72 733.754 386.163 732.304 385.032C730.853 383.88 728.986 383.304 726.704 383.304C724.592 383.304 722.789 383.816 721.296 384.84C719.824 385.843 718.693 387.325 717.904 389.288C717.114 391.251 716.72 393.64 716.72 396.456C716.72 398.973 717.061 401.224 717.744 403.208C718.448 405.171 719.536 406.728 721.008 407.88C722.48 409.032 724.378 409.608 726.704 409.608ZM749.62 413V379.912H754.42V384.744C754.975 383.784 755.732 382.899 756.692 382.088C757.673 381.277 758.857 380.627 760.244 380.136C761.652 379.645 763.231 379.4 764.98 379.4C767.113 379.4 769.055 379.827 770.804 380.68C772.575 381.512 773.983 382.813 775.028 384.584C776.073 386.355 776.596 388.627 776.596 391.4V413H771.604V391.848C771.604 389.032 770.889 386.952 769.46 385.608C768.031 384.264 766.143 383.592 763.796 383.592C762.196 383.592 760.692 383.848 759.284 384.36C757.876 384.872 756.745 385.651 755.892 386.696C755.039 387.741 754.612 389.053 754.612 390.632V413H749.62ZM813.234 413.64C810.247 413.64 807.623 413 805.362 411.72C803.122 410.419 801.383 408.499 800.146 405.96C798.909 403.421 798.29 400.296 798.29 396.584C798.29 393.128 798.855 390.099 799.986 387.496C801.138 384.893 802.823 382.877 805.042 381.448C807.261 379.997 810.002 379.272 813.266 379.272C816.253 379.272 818.845 379.933 821.042 381.256C823.261 382.557 824.978 384.499 826.194 387.08C827.431 389.64 828.05 392.808 828.05 396.584C828.05 399.955 827.495 402.92 826.386 405.48C825.277 408.04 823.623 410.045 821.426 411.496C819.25 412.925 816.519 413.64 813.234 413.64ZM813.266 409.608C815.335 409.608 817.095 409.096 818.546 408.072C820.018 407.048 821.138 405.555 821.906 403.592C822.695 401.629 823.09 399.251 823.09 396.456C823.09 393.939 822.749 391.688 822.066 389.704C821.383 387.72 820.317 386.163 818.866 385.032C817.415 383.88 815.549 383.304 813.266 383.304C811.154 383.304 809.351 383.816 807.858 384.84C806.386 385.843 805.255 387.325 804.466 389.288C803.677 391.251 803.282 393.64 803.282 396.456C803.282 398.973 803.623 401.224 804.306 403.208C805.01 405.171 806.098 406.728 807.57 407.88C809.042 409.032 810.941 409.608 813.266 409.608ZM853.08 379.912V383.656H844.76V413H839.768V383.656H832.536V379.912H839.768V374.664C839.768 372.061 840.408 370.088 841.688 368.744C842.968 367.4 844.92 366.728 847.544 366.728H853.4V370.376H848.312C846.904 370.376 845.944 370.76 845.432 371.528C844.941 372.275 844.696 373.405 844.696 374.92V379.912H853.08ZM65.6 447.656H58.112V469C58.112 470.28 58.2293 471.219 58.464 471.816C58.72 472.392 59.1573 472.765 59.776 472.936C60.416 473.085 61.3013 473.16 62.432 473.16H65.824V476.616C65.4187 476.765 64.8107 476.893 64 477C63.2107 477.085 62.2613 477.128 61.152 477.128C59.04 477.128 57.3973 476.829 56.224 476.232C55.072 475.635 54.2613 474.749 53.792 473.576C53.3227 472.403 53.088 470.931 53.088 469.16V447.656H47.712V443.912H53.216L54.4 434.376H58.112V443.88H65.6V447.656ZM74.5575 477V429.448H79.3895V448.776C79.9655 447.837 80.7335 446.963 81.6935 446.152C82.6748 445.341 83.8482 444.691 85.2135 444.2C86.6002 443.688 88.1788 443.432 89.9495 443.432C92.1255 443.432 94.0775 443.827 95.8055 444.616C97.5548 445.405 98.9415 446.525 99.9655 447.976C100.99 449.427 101.502 451.133 101.502 453.096V477H96.5095V454.216C96.5095 452.125 95.7948 450.504 94.3655 449.352C92.9362 448.179 91.0482 447.592 88.7015 447.592C87.1015 447.592 85.5975 447.859 84.1895 448.392C82.8028 448.904 81.6828 449.683 80.8295 450.728C79.9762 451.752 79.5495 453.064 79.5495 454.664V477H74.5575ZM114.51 461.608C114.51 463.827 114.873 465.843 115.599 467.656C116.324 469.469 117.444 470.92 118.959 472.008C120.473 473.096 122.393 473.64 124.719 473.64C126.959 473.64 128.889 473.117 130.511 472.072C132.132 471.005 133.145 469.501 133.551 467.56H138.351C137.945 469.779 137.06 471.635 135.695 473.128C134.351 474.621 132.719 475.752 130.799 476.52C128.9 477.267 126.895 477.64 124.783 477.64C121.753 477.64 119.076 476.979 116.751 475.656C114.447 474.312 112.644 472.381 111.343 469.864C110.063 467.347 109.423 464.317 109.423 460.776C109.423 457.256 110.009 454.184 111.183 451.56C112.356 448.915 114.052 446.877 116.271 445.448C118.511 443.997 121.209 443.272 124.367 443.272C127.417 443.272 129.999 443.933 132.111 445.256C134.223 446.557 135.833 448.424 136.943 450.856C138.052 453.288 138.607 456.189 138.607 459.56V461.608H114.51ZM114.543 458.056H133.743C133.743 456.008 133.401 454.163 132.719 452.52C132.036 450.877 131.001 449.576 129.615 448.616C128.228 447.656 126.468 447.176 124.335 447.176C122.073 447.176 120.217 447.72 118.767 448.808C117.337 449.875 116.271 451.24 115.567 452.904C114.863 454.568 114.521 456.285 114.543 458.056ZM162.993 430.728H167.985V477H162.993V430.728ZM179.433 477V443.912H184.233V448.744C184.787 447.784 185.545 446.899 186.505 446.088C187.486 445.277 188.67 444.627 190.057 444.136C191.465 443.645 193.043 443.4 194.793 443.4C196.926 443.4 198.867 443.827 200.617 444.68C202.387 445.512 203.795 446.813 204.841 448.584C205.886 450.355 206.409 452.627 206.409 455.4V477H201.417V455.848C201.417 453.032 200.702 450.952 199.273 449.608C197.843 448.264 195.955 447.592 193.609 447.592C192.009 447.592 190.505 447.848 189.097 448.36C187.689 448.872 186.558 449.651 185.705 450.696C184.851 451.741 184.425 453.053 184.425 454.632V477H179.433ZM230.35 447.656H222.862V469C222.862 470.28 222.979 471.219 223.214 471.816C223.47 472.392 223.907 472.765 224.526 472.936C225.166 473.085 226.051 473.16 227.182 473.16H230.574V476.616C230.169 476.765 229.561 476.893 228.75 477C227.961 477.085 227.011 477.128 225.902 477.128C223.79 477.128 222.147 476.829 220.974 476.232C219.822 475.635 219.011 474.749 218.542 473.576C218.073 472.403 217.838 470.931 217.838 469.16V447.656H212.462V443.912H217.966L219.15 434.376H222.862V443.88H230.35V447.656ZM241.823 461.608C241.823 463.827 242.186 465.843 242.911 467.656C243.636 469.469 244.756 470.92 246.271 472.008C247.786 473.096 249.706 473.64 252.031 473.64C254.271 473.64 256.202 473.117 257.823 472.072C259.444 471.005 260.458 469.501 260.863 467.56H265.663C265.258 469.779 264.372 471.635 263.007 473.128C261.663 474.621 260.031 475.752 258.111 476.52C256.212 477.267 254.207 477.64 252.095 477.64C249.066 477.64 246.388 476.979 244.063 475.656C241.759 474.312 239.956 472.381 238.655 469.864C237.375 467.347 236.735 464.317 236.735 460.776C236.735 457.256 237.322 454.184 238.495 451.56C239.668 448.915 241.364 446.877 243.583 445.448C245.823 443.997 248.522 443.272 251.679 443.272C254.73 443.272 257.311 443.933 259.423 445.256C261.535 446.557 263.146 448.424 264.255 450.856C265.364 453.288 265.919 456.189 265.919 459.56V461.608H241.823ZM241.855 458.056H261.055C261.055 456.008 260.714 454.163 260.031 452.52C259.348 450.877 258.314 449.576 256.927 448.616C255.54 447.656 253.78 447.176 251.647 447.176C249.386 447.176 247.53 447.72 246.079 448.808C244.65 449.875 243.583 451.24 242.879 452.904C242.175 454.568 241.834 456.285 241.855 458.056ZM274.433 477V443.912H279.169V449.896C279.723 448.339 280.502 447.08 281.505 446.12C282.529 445.139 283.67 444.424 284.929 443.976C286.209 443.507 287.499 443.272 288.801 443.272C289.334 443.272 289.857 443.315 290.369 443.4C290.881 443.464 291.286 443.581 291.585 443.752V448.616C291.243 448.445 290.785 448.328 290.209 448.264C289.654 448.2 289.185 448.168 288.801 448.168C287.627 448.104 286.486 448.189 285.377 448.424C284.267 448.659 283.254 449.075 282.337 449.672C281.441 450.269 280.726 451.069 280.193 452.072C279.681 453.075 279.425 454.301 279.425 455.752V477H274.433ZM310.154 458.408V462.472L294.25 462.504V458.44L310.154 458.408ZM320.493 477V430.728H334.861C340.365 430.728 344.557 431.763 347.437 433.832C350.338 435.88 351.789 438.856 351.789 442.76C351.789 445.256 351.128 447.389 349.805 449.16C348.504 450.931 346.253 452.349 343.053 453.416C344.845 453.779 346.37 454.312 347.629 455.016C348.888 455.72 349.901 456.552 350.669 457.512C351.458 458.472 352.024 459.549 352.365 460.744C352.728 461.939 352.909 463.219 352.909 464.584C352.909 468.744 351.416 471.859 348.429 473.928C345.442 475.976 341.048 477 335.245 477H320.493ZM325.485 472.68H335.117C339.277 472.68 342.445 472.029 344.621 470.728C346.797 469.405 347.885 467.325 347.885 464.488C347.885 462.397 347.341 460.712 346.253 459.432C345.186 458.152 343.746 457.224 341.933 456.648C340.12 456.072 338.104 455.784 335.885 455.784H325.485V472.68ZM325.485 451.4H335.885C337.165 451.4 338.445 451.283 339.725 451.048C341.026 450.792 342.221 450.365 343.309 449.768C344.397 449.171 345.272 448.36 345.933 447.336C346.594 446.291 346.925 444.979 346.925 443.4C346.925 440.499 345.816 438.376 343.597 437.032C341.4 435.667 338.53 434.984 334.989 434.984H325.485V451.4ZM369.614 477.352C368.035 477.352 366.734 477.128 365.71 476.68C364.707 476.211 363.918 475.571 363.342 474.76C362.787 473.949 362.403 473.021 362.19 471.976C361.977 470.931 361.87 469.832 361.87 468.68V429.448H366.798V468.264C366.798 470.077 367.139 471.411 367.822 472.264C368.505 473.096 369.401 473.544 370.51 473.608L372.366 473.64V476.904C371.897 477.053 371.417 477.16 370.926 477.224C370.435 477.309 369.998 477.352 369.614 477.352ZM392.734 477.64C389.747 477.64 387.123 477 384.862 475.72C382.622 474.419 380.883 472.499 379.646 469.96C378.409 467.421 377.79 464.296 377.79 460.584C377.79 457.128 378.355 454.099 379.486 451.496C380.638 448.893 382.323 446.877 384.542 445.448C386.761 443.997 389.502 443.272 392.766 443.272C395.753 443.272 398.345 443.933 400.542 445.256C402.761 446.557 404.478 448.499 405.694 451.08C406.931 453.64 407.55 456.808 407.55 460.584C407.55 463.955 406.995 466.92 405.886 469.48C404.777 472.04 403.123 474.045 400.926 475.496C398.75 476.925 396.019 477.64 392.734 477.64ZM392.766 473.608C394.835 473.608 396.595 473.096 398.046 472.072C399.518 471.048 400.638 469.555 401.406 467.592C402.195 465.629 402.59 463.251 402.59 460.456C402.59 457.939 402.249 455.688 401.566 453.704C400.883 451.72 399.817 450.163 398.366 449.032C396.915 447.88 395.049 447.304 392.766 447.304C390.654 447.304 388.851 447.816 387.358 448.84C385.886 449.843 384.755 451.325 383.966 453.288C383.177 455.251 382.782 457.64 382.782 460.456C382.782 462.973 383.123 465.224 383.806 467.208C384.51 469.171 385.598 470.728 387.07 471.88C388.542 473.032 390.441 473.608 392.766 473.608ZM428.611 443.272C430.893 443.272 432.963 443.699 434.819 444.552C436.675 445.405 438.211 446.632 439.427 448.232C440.643 449.811 441.421 451.72 441.763 453.96H437.187C436.973 452.723 436.493 451.613 435.747 450.632C435 449.629 434.019 448.84 432.803 448.264C431.608 447.688 430.221 447.4 428.642 447.4C425.635 447.4 423.181 448.477 421.283 450.632C419.405 452.765 418.467 456.061 418.467 460.52C418.467 464.509 419.32 467.709 421.027 470.12C422.755 472.509 425.315 473.704 428.707 473.704C430.285 473.704 431.672 473.416 432.867 472.84C434.083 472.243 435.064 471.453 435.811 470.472C436.557 469.469 437.027 468.371 437.219 467.176H441.731C441.411 469.352 440.632 471.229 439.395 472.808C438.157 474.365 436.611 475.56 434.755 476.392C432.92 477.224 430.872 477.64 428.611 477.64C425.667 477.64 423.064 477 420.803 475.72C418.541 474.44 416.771 472.531 415.491 469.992C414.232 467.453 413.603 464.307 413.603 460.552C413.603 457.117 414.179 454.109 415.331 451.528C416.483 448.925 418.168 446.899 420.387 445.448C422.627 443.997 425.368 443.272 428.611 443.272ZM478.439 477H473.031L462.279 459.752L455.143 467.08V477H450.183V429.448H455.143V461.224L471.623 443.912H477.511L465.607 456.36L478.439 477ZM497.486 443.272C499.768 443.272 501.838 443.699 503.694 444.552C505.55 445.405 507.086 446.632 508.302 448.232C509.518 449.811 510.296 451.72 510.638 453.96H506.062C505.848 452.723 505.368 451.613 504.622 450.632C503.875 449.629 502.894 448.84 501.678 448.264C500.483 447.688 499.096 447.4 497.517 447.4C494.51 447.4 492.056 448.477 490.158 450.632C488.28 452.765 487.342 456.061 487.342 460.52C487.342 464.509 488.195 467.709 489.902 470.12C491.63 472.509 494.19 473.704 497.582 473.704C499.16 473.704 500.547 473.416 501.742 472.84C502.958 472.243 503.939 471.453 504.686 470.472C505.432 469.469 505.902 468.371 506.094 467.176H510.606C510.286 469.352 509.507 471.229 508.27 472.808C507.032 474.365 505.486 475.56 503.63 476.392C501.795 477.224 499.747 477.64 497.486 477.64C494.542 477.64 491.939 477 489.678 475.72C487.416 474.44 485.646 472.531 484.366 469.992C483.107 467.453 482.478 464.307 482.478 460.552C482.478 457.117 483.054 454.109 484.206 451.528C485.358 448.925 487.043 446.899 489.262 445.448C491.502 443.997 494.243 443.272 497.486 443.272ZM519.058 477V429.448H523.89V448.776C524.466 447.837 525.234 446.963 526.194 446.152C527.175 445.341 528.348 444.691 529.714 444.2C531.1 443.688 532.679 443.432 534.45 443.432C536.626 443.432 538.578 443.827 540.306 444.616C542.055 445.405 543.442 446.525 544.466 447.976C545.49 449.427 546.002 451.133 546.002 453.096V477H541.01V454.216C541.01 452.125 540.295 450.504 538.866 449.352C537.436 448.179 535.548 447.592 533.202 447.592C531.602 447.592 530.098 447.859 528.69 448.392C527.303 448.904 526.183 449.683 525.33 450.728C524.476 451.752 524.05 453.064 524.05 454.664V477H519.058ZM564.676 477.64C562.521 477.64 560.633 477.267 559.012 476.52C557.391 475.752 556.121 474.664 555.204 473.256C554.308 471.848 553.86 470.152 553.86 468.168C553.86 464.499 555.108 461.779 557.604 460.008C560.121 458.237 564.185 457.277 569.796 457.128L576.196 456.936V454.184C576.196 452.029 575.535 450.312 574.212 449.032C572.911 447.731 570.895 447.091 568.164 447.112C566.116 447.112 564.335 447.592 562.82 448.552C561.327 449.491 560.377 451.005 559.972 453.096H555.428C555.556 451.027 556.143 449.267 557.188 447.816C558.233 446.344 559.705 445.224 561.604 444.456C563.503 443.667 565.775 443.272 568.42 443.272C571.151 443.272 573.444 443.677 575.3 444.488C577.177 445.277 578.596 446.472 579.556 448.072C580.516 449.651 580.996 451.613 580.996 453.96V477H576.708L576.356 470.632C575.033 473.256 573.348 475.08 571.3 476.104C569.273 477.128 567.065 477.64 564.676 477.64ZM566.084 473.896C567.279 473.896 568.463 473.683 569.636 473.256C570.831 472.829 571.919 472.243 572.9 471.496C573.881 470.749 574.671 469.917 575.268 469C575.865 468.083 576.175 467.144 576.196 466.184V460.296L570.852 460.392C568.057 460.435 565.764 460.712 563.972 461.224C562.201 461.736 560.879 462.525 560.004 463.592C559.151 464.637 558.724 466.013 558.724 467.72C558.724 469.661 559.407 471.176 560.772 472.264C562.137 473.352 563.908 473.896 566.084 473.896ZM597.158 443.912V477H592.294V443.912H597.158ZM597.318 430.76V436.264H592.07V430.76H597.318ZM608.495 477V443.912H613.295V448.744C613.85 447.784 614.607 446.899 615.567 446.088C616.548 445.277 617.732 444.627 619.119 444.136C620.527 443.645 622.106 443.4 623.855 443.4C625.988 443.4 627.93 443.827 629.679 444.68C631.45 445.512 632.858 446.813 633.903 448.584C634.948 450.355 635.471 452.627 635.471 455.4V477H630.479V455.848C630.479 453.032 629.764 450.952 628.335 449.608C626.906 448.264 625.018 447.592 622.671 447.592C621.071 447.592 619.567 447.848 618.159 448.36C616.751 448.872 615.62 449.651 614.767 450.696C613.914 451.741 613.487 453.053 613.487 454.632V477H608.495ZM66.88 494.088C70.08 494.088 72.9173 494.76 75.392 496.104C77.8667 497.448 79.8507 499.229 81.344 501.448C82.8373 503.667 83.7227 506.077 84 508.68H78.624C78.2613 506.824 77.5787 505.128 76.576 503.592C75.5947 502.056 74.2827 500.829 72.64 499.912C70.9973 498.995 69.0453 498.536 66.784 498.536C63.7973 498.536 61.28 499.229 59.232 500.616C57.2053 502.003 55.6693 504.125 54.624 506.984C53.6 509.821 53.088 513.437 53.088 517.832C53.088 524.445 54.24 529.32 56.544 532.456C58.8693 535.592 62.2827 537.16 66.784 537.16C69.0453 537.16 70.9973 536.691 72.64 535.752C74.2827 534.792 75.5947 533.533 76.576 531.976C77.5787 530.397 78.2613 528.68 78.624 526.824H84C83.7653 528.723 83.232 530.568 82.4 532.36C81.5893 534.131 80.4693 535.72 79.04 537.128C77.632 538.515 75.904 539.613 73.856 540.424C71.8293 541.235 69.504 541.64 66.88 541.64C62.7627 541.64 59.264 540.712 56.384 538.856C53.5253 536.979 51.3387 534.269 49.824 530.728C48.3093 527.165 47.552 522.845 47.552 517.768C47.552 512.691 48.2987 508.392 49.792 504.872C51.3067 501.352 53.504 498.675 56.384 496.84C59.264 495.005 62.7627 494.088 66.88 494.088ZM105.422 541.64C102.435 541.64 99.8108 541 97.5495 539.72C95.3095 538.419 93.5708 536.499 92.3335 533.96C91.0962 531.421 90.4775 528.296 90.4775 524.584C90.4775 521.128 91.0428 518.099 92.1735 515.496C93.3255 512.893 95.0108 510.877 97.2295 509.448C99.4482 507.997 102.19 507.272 105.454 507.272C108.44 507.272 111.032 507.933 113.23 509.256C115.448 510.557 117.166 512.499 118.382 515.08C119.619 517.64 120.238 520.808 120.238 524.584C120.238 527.955 119.683 530.92 118.574 533.48C117.464 536.04 115.811 538.045 113.614 539.496C111.438 540.925 108.707 541.64 105.422 541.64ZM105.454 537.608C107.523 537.608 109.283 537.096 110.734 536.072C112.206 535.048 113.326 533.555 114.094 531.592C114.883 529.629 115.278 527.251 115.278 524.456C115.278 521.939 114.936 519.688 114.254 517.704C113.571 515.72 112.504 514.163 111.054 513.032C109.603 511.88 107.736 511.304 105.454 511.304C103.342 511.304 101.539 511.816 100.046 512.84C98.5735 513.843 97.4428 515.325 96.6535 517.288C95.8642 519.251 95.4695 521.64 95.4695 524.456C95.4695 526.973 95.8108 529.224 96.4935 531.208C97.1975 533.171 98.2855 534.728 99.7575 535.88C101.23 537.032 103.128 537.608 105.454 537.608ZM128.37 541V507.912H133.17V512.744C134.045 511.272 135.261 509.992 136.818 508.904C138.397 507.816 140.466 507.272 143.026 507.272C144.263 507.272 145.511 507.475 146.77 507.88C148.029 508.285 149.181 508.893 150.226 509.704C151.271 510.515 152.071 511.517 152.626 512.712C153.65 511.048 155.037 509.725 156.786 508.744C158.535 507.763 160.519 507.272 162.738 507.272C163.89 507.272 165.085 507.443 166.322 507.784C167.581 508.125 168.754 508.733 169.842 509.608C170.93 510.461 171.805 511.688 172.466 513.288C173.149 514.867 173.49 516.904 173.49 519.4V541H168.498V519.848C168.498 517.651 168.157 515.965 167.474 514.792C166.791 513.597 165.906 512.765 164.818 512.296C163.73 511.827 162.567 511.592 161.33 511.592C160.221 511.592 159.047 511.805 157.81 512.232C156.594 512.637 155.549 513.352 154.674 514.376C153.821 515.4 153.394 516.819 153.394 518.632V541H148.402V517.864C148.402 516.477 148.029 515.325 147.282 514.408C146.557 513.469 145.65 512.765 144.562 512.296C143.474 511.827 142.386 511.592 141.298 511.592C140.103 511.592 138.887 511.827 137.65 512.296C136.434 512.765 135.41 513.523 134.578 514.568C133.767 515.613 133.362 516.968 133.362 518.632V541H128.37ZM183.183 541V507.912H187.983V512.744C188.857 511.272 190.073 509.992 191.631 508.904C193.209 507.816 195.279 507.272 197.839 507.272C199.076 507.272 200.324 507.475 201.583 507.88C202.841 508.285 203.993 508.893 205.039 509.704C206.084 510.515 206.884 511.517 207.439 512.712C208.463 511.048 209.849 509.725 211.599 508.744C213.348 507.763 215.332 507.272 217.551 507.272C218.703 507.272 219.897 507.443 221.135 507.784C222.393 508.125 223.567 508.733 224.655 509.608C225.743 510.461 226.617 511.688 227.279 513.288C227.961 514.867 228.303 516.904 228.303 519.4V541H223.311V519.848C223.311 517.651 222.969 515.965 222.287 514.792C221.604 513.597 220.719 512.765 219.631 512.296C218.543 511.827 217.38 511.592 216.143 511.592C215.033 511.592 213.86 511.805 212.623 512.232C211.407 512.637 210.361 513.352 209.487 514.376C208.633 515.4 208.207 516.819 208.207 518.632V541H203.215V517.864C203.215 516.477 202.841 515.325 202.095 514.408C201.369 513.469 200.463 512.765 199.375 512.296C198.287 511.827 197.199 511.592 196.111 511.592C194.916 511.592 193.7 511.827 192.463 512.296C191.247 512.765 190.223 513.523 189.391 514.568C188.58 515.613 188.175 516.968 188.175 518.632V541H183.183ZM249.593 541.64C247.822 541.619 246.169 541.373 244.633 540.904C243.097 540.413 241.742 539.699 240.569 538.76C239.417 537.8 238.51 536.616 237.849 535.208C237.209 533.779 236.889 532.125 236.889 530.248V507.912H241.881V529.8C241.881 532.125 242.585 534.013 243.993 535.464C245.401 536.893 247.566 537.608 250.489 537.608C253.091 537.608 255.182 536.936 256.761 535.592C258.339 534.227 259.129 532.168 259.129 529.416V507.912H264.089V541H260.057L259.545 534.728C259.161 536.307 258.489 537.608 257.529 538.632C256.59 539.656 255.438 540.424 254.073 540.936C252.729 541.427 251.235 541.661 249.593 541.64ZM274.245 541V507.912H279.045V512.744C279.6 511.784 280.357 510.899 281.317 510.088C282.298 509.277 283.482 508.627 284.869 508.136C286.277 507.645 287.856 507.4 289.605 507.4C291.738 507.4 293.68 507.827 295.429 508.68C297.2 509.512 298.608 510.813 299.653 512.584C300.698 514.355 301.221 516.627 301.221 519.4V541H296.229V519.848C296.229 517.032 295.514 514.952 294.085 513.608C292.656 512.264 290.768 511.592 288.421 511.592C286.821 511.592 285.317 511.848 283.909 512.36C282.501 512.872 281.37 513.651 280.517 514.696C279.664 515.741 279.237 517.053 279.237 518.632V541H274.245ZM316.47 507.912V541H311.606V507.912H316.47ZM316.63 494.76V500.264H311.382V494.76H316.63ZM340.298 507.272C342.581 507.272 344.65 507.699 346.506 508.552C348.362 509.405 349.898 510.632 351.114 512.232C352.33 513.811 353.109 515.72 353.45 517.96H348.874C348.661 516.723 348.181 515.613 347.434 514.632C346.687 513.629 345.706 512.84 344.49 512.264C343.295 511.688 341.909 511.4 340.33 511.4C337.322 511.4 334.869 512.477 332.97 514.632C331.093 516.765 330.154 520.061 330.154 524.52C330.154 528.509 331.007 531.709 332.714 534.12C334.442 536.509 337.002 537.704 340.394 537.704C341.973 537.704 343.359 537.416 344.554 536.84C345.77 536.243 346.751 535.453 347.498 534.472C348.245 533.469 348.714 532.371 348.906 531.176H353.418C353.098 533.352 352.319 535.229 351.082 536.808C349.845 538.365 348.298 539.56 346.442 540.392C344.607 541.224 342.559 541.64 340.298 541.64C337.354 541.64 334.751 541 332.49 539.72C330.229 538.44 328.458 536.531 327.178 533.992C325.919 531.453 325.29 528.307 325.29 524.552C325.29 521.117 325.866 518.109 327.018 515.528C328.17 512.925 329.855 510.899 332.074 509.448C334.314 507.997 337.055 507.272 340.298 507.272ZM370.489 541.64C368.334 541.64 366.446 541.267 364.825 540.52C363.203 539.752 361.934 538.664 361.016 537.256C360.121 535.848 359.673 534.152 359.673 532.168C359.673 528.499 360.921 525.779 363.417 524.008C365.934 522.237 369.998 521.277 375.609 521.128L382.009 520.936V518.184C382.009 516.029 381.347 514.312 380.025 513.032C378.723 511.731 376.707 511.091 373.977 511.112C371.929 511.112 370.147 511.592 368.633 512.552C367.139 513.491 366.19 515.005 365.785 517.096H361.241C361.369 515.027 361.955 513.267 363.001 511.816C364.046 510.344 365.518 509.224 367.417 508.456C369.315 507.667 371.587 507.272 374.233 507.272C376.963 507.272 379.257 507.677 381.113 508.488C382.99 509.277 384.409 510.472 385.369 512.072C386.329 513.651 386.809 515.613 386.809 517.96V541H382.521L382.169 534.632C380.846 537.256 379.161 539.08 377.113 540.104C375.086 541.128 372.878 541.64 370.489 541.64ZM371.897 537.896C373.091 537.896 374.275 537.683 375.449 537.256C376.643 536.829 377.731 536.243 378.713 535.496C379.694 534.749 380.483 533.917 381.081 533C381.678 532.083 381.987 531.144 382.009 530.184V524.296L376.665 524.392C373.87 524.435 371.577 524.712 369.785 525.224C368.014 525.736 366.691 526.525 365.817 527.592C364.963 528.637 364.536 530.013 364.536 531.72C364.536 533.661 365.219 535.176 366.585 536.264C367.95 537.352 369.721 537.896 371.897 537.896ZM411.663 511.656H404.175V533C404.175 534.28 404.292 535.219 404.527 535.816C404.783 536.392 405.22 536.765 405.839 536.936C406.479 537.085 407.364 537.16 408.495 537.16H411.887V540.616C411.481 540.765 410.873 540.893 410.062 541C409.273 541.085 408.324 541.128 407.215 541.128C405.103 541.128 403.46 540.829 402.287 540.232C401.135 539.635 400.324 538.749 399.855 537.576C399.385 536.403 399.151 534.931 399.151 533.16V511.656H393.775V507.912H399.279L400.463 498.376H404.175V507.88H411.663V511.656ZM426.22 507.912V541H421.356V507.912H426.22ZM426.38 494.76V500.264H421.132V494.76H426.38ZM449.984 541.64C446.997 541.64 444.373 541 442.112 539.72C439.872 538.419 438.133 536.499 436.896 533.96C435.659 531.421 435.04 528.296 435.04 524.584C435.04 521.128 435.605 518.099 436.736 515.496C437.888 512.893 439.573 510.877 441.792 509.448C444.011 507.997 446.752 507.272 450.016 507.272C453.003 507.272 455.595 507.933 457.792 509.256C460.011 510.557 461.728 512.499 462.944 515.08C464.181 517.64 464.8 520.808 464.8 524.584C464.8 527.955 464.245 530.92 463.136 533.48C462.027 536.04 460.373 538.045 458.176 539.496C456 540.925 453.269 541.64 449.984 541.64ZM450.016 537.608C452.085 537.608 453.845 537.096 455.296 536.072C456.768 535.048 457.888 533.555 458.656 531.592C459.445 529.629 459.84 527.251 459.84 524.456C459.84 521.939 459.499 519.688 458.816 517.704C458.133 515.72 457.067 514.163 455.616 513.032C454.165 511.88 452.299 511.304 450.016 511.304C447.904 511.304 446.101 511.816 444.608 512.84C443.136 513.843 442.005 515.325 441.216 517.288C440.427 519.251 440.032 521.64 440.032 524.456C440.032 526.973 440.373 529.224 441.056 531.208C441.76 533.171 442.848 534.728 444.32 535.88C445.792 537.032 447.691 537.608 450.016 537.608ZM472.933 541V507.912H477.733V512.744C478.287 511.784 479.045 510.899 480.005 510.088C480.986 509.277 482.17 508.627 483.557 508.136C484.965 507.645 486.543 507.4 488.293 507.4C490.426 507.4 492.367 507.827 494.117 508.68C495.887 509.512 497.295 510.813 498.341 512.584C499.386 514.355 499.909 516.627 499.909 519.4V541H494.917V519.848C494.917 517.032 494.202 514.952 492.773 513.608C491.343 512.264 489.455 511.592 487.109 511.592C485.509 511.592 484.005 511.848 482.597 512.36C481.189 512.872 480.058 513.651 479.205 514.696C478.351 515.741 477.925 517.053 477.925 518.632V541H472.933ZM525.868 541V494.728H541.132C544.417 494.728 547.34 495.283 549.9 496.392C552.481 497.48 554.497 499.101 555.948 501.256C557.42 503.389 558.156 506.035 558.156 509.192C558.156 512.285 557.463 514.92 556.076 517.096C554.689 519.251 552.769 520.893 550.316 522.024C547.884 523.155 545.057 523.72 541.836 523.72H531.052V541H525.868ZM531.02 519.336H541.74C545.132 519.336 547.884 518.408 549.996 516.552C552.129 514.696 553.196 512.147 553.196 508.904C553.196 505.619 552.108 503.155 549.932 501.512C547.756 499.869 544.908 499.048 541.388 499.048H531.02V519.336ZM565.058 541V507.912H569.794V513.896C570.348 512.339 571.127 511.08 572.13 510.12C573.154 509.139 574.295 508.424 575.554 507.976C576.834 507.507 578.124 507.272 579.426 507.272C579.959 507.272 580.482 507.315 580.994 507.4C581.506 507.464 581.911 507.581 582.21 507.752V512.616C581.868 512.445 581.41 512.328 580.834 512.264C580.279 512.2 579.81 512.168 579.426 512.168C578.252 512.104 577.111 512.189 576.002 512.424C574.892 512.659 573.879 513.075 572.962 513.672C572.066 514.269 571.351 515.069 570.818 516.072C570.306 517.075 570.05 518.301 570.05 519.752V541H565.058ZM601.547 541.64C598.56 541.64 595.936 541 593.675 539.72C591.435 538.419 589.696 536.499 588.459 533.96C587.221 531.421 586.603 528.296 586.603 524.584C586.603 521.128 587.168 518.099 588.299 515.496C589.451 512.893 591.136 510.877 593.355 509.448C595.573 507.997 598.315 507.272 601.579 507.272C604.565 507.272 607.157 507.933 609.355 509.256C611.573 510.557 613.291 512.499 614.507 515.08C615.744 517.64 616.363 520.808 616.363 524.584C616.363 527.955 615.808 530.92 614.699 533.48C613.589 536.04 611.936 538.045 609.739 539.496C607.563 540.925 604.832 541.64 601.547 541.64ZM601.579 537.608C603.648 537.608 605.408 537.096 606.859 536.072C608.331 535.048 609.451 533.555 610.219 531.592C611.008 529.629 611.403 527.251 611.403 524.456C611.403 521.939 611.061 519.688 610.379 517.704C609.696 515.72 608.629 514.163 607.179 513.032C605.728 511.88 603.861 511.304 601.579 511.304C599.467 511.304 597.664 511.816 596.171 512.84C594.699 513.843 593.568 515.325 592.779 517.288C591.989 519.251 591.595 521.64 591.595 524.456C591.595 526.973 591.936 529.224 592.619 531.208C593.323 533.171 594.411 534.728 595.883 535.88C597.355 537.032 599.253 537.608 601.579 537.608ZM639.35 511.656H631.862V533C631.862 534.28 631.979 535.219 632.214 535.816C632.47 536.392 632.907 536.765 633.526 536.936C634.166 537.085 635.051 537.16 636.182 537.16H639.574V540.616C639.169 540.765 638.561 540.893 637.75 541C636.961 541.085 636.011 541.128 634.902 541.128C632.79 541.128 631.147 540.829 629.974 540.232C628.822 539.635 628.011 538.749 627.542 537.576C627.073 536.403 626.838 534.931 626.838 533.16V511.656H621.462V507.912H626.966L628.15 498.376H631.862V507.88H639.35V511.656ZM660.359 541.64C657.372 541.64 654.748 541 652.487 539.72C650.247 538.419 648.508 536.499 647.271 533.96C646.034 531.421 645.415 528.296 645.415 524.584C645.415 521.128 645.98 518.099 647.111 515.496C648.263 512.893 649.948 510.877 652.167 509.448C654.386 507.997 657.127 507.272 660.391 507.272C663.378 507.272 665.97 507.933 668.167 509.256C670.386 510.557 672.103 512.499 673.319 515.08C674.556 517.64 675.175 520.808 675.175 524.584C675.175 527.955 674.62 530.92 673.511 533.48C672.402 536.04 670.748 538.045 668.551 539.496C666.375 540.925 663.644 541.64 660.359 541.64ZM660.391 537.608C662.46 537.608 664.22 537.096 665.671 536.072C667.143 535.048 668.263 533.555 669.031 531.592C669.82 529.629 670.215 527.251 670.215 524.456C670.215 521.939 669.874 519.688 669.191 517.704C668.508 515.72 667.442 514.163 665.991 513.032C664.54 511.88 662.674 511.304 660.391 511.304C658.279 511.304 656.476 511.816 654.983 512.84C653.511 513.843 652.38 515.325 651.591 517.288C650.802 519.251 650.407 521.64 650.407 524.456C650.407 526.973 650.748 529.224 651.431 531.208C652.135 533.171 653.223 534.728 654.695 535.88C656.167 537.032 658.066 537.608 660.391 537.608ZM696.236 507.272C698.518 507.272 700.588 507.699 702.444 508.552C704.3 509.405 705.836 510.632 707.052 512.232C708.268 513.811 709.046 515.72 709.388 517.96H704.812C704.598 516.723 704.118 515.613 703.372 514.632C702.625 513.629 701.644 512.84 700.428 512.264C699.233 511.688 697.846 511.4 696.267 511.4C693.26 511.4 690.806 512.477 688.908 514.632C687.03 516.765 686.092 520.061 686.092 524.52C686.092 528.509 686.945 531.709 688.652 534.12C690.38 536.509 692.94 537.704 696.332 537.704C697.91 537.704 699.297 537.416 700.492 536.84C701.708 536.243 702.689 535.453 703.436 534.472C704.182 533.469 704.652 532.371 704.844 531.176H709.356C709.036 533.352 708.257 535.229 707.02 536.808C705.782 538.365 704.236 539.56 702.38 540.392C700.545 541.224 698.497 541.64 696.236 541.64C693.292 541.64 690.689 541 688.428 539.72C686.166 538.44 684.396 536.531 683.116 533.992C681.857 531.453 681.228 528.307 681.228 524.552C681.228 521.117 681.804 518.109 682.956 515.528C684.108 512.925 685.793 510.899 688.012 509.448C690.252 507.997 692.993 507.272 696.236 507.272ZM730.672 541.64C727.685 541.64 725.061 541 722.8 539.72C720.56 538.419 718.821 536.499 717.584 533.96C716.346 531.421 715.728 528.296 715.728 524.584C715.728 521.128 716.293 518.099 717.424 515.496C718.576 512.893 720.261 510.877 722.48 509.448C724.698 507.997 727.44 507.272 730.704 507.272C733.69 507.272 736.282 507.933 738.48 509.256C740.698 510.557 742.416 512.499 743.632 515.08C744.869 517.64 745.488 520.808 745.488 524.584C745.488 527.955 744.933 530.92 743.824 533.48C742.714 536.04 741.061 538.045 738.864 539.496C736.688 540.925 733.957 541.64 730.672 541.64ZM730.704 537.608C732.773 537.608 734.533 537.096 735.984 536.072C737.456 535.048 738.576 533.555 739.344 531.592C740.133 529.629 740.528 527.251 740.528 524.456C740.528 521.939 740.186 519.688 739.504 517.704C738.821 515.72 737.754 514.163 736.304 513.032C734.853 511.88 732.986 511.304 730.704 511.304C728.592 511.304 726.789 511.816 725.296 512.84C723.824 513.843 722.693 515.325 721.904 517.288C721.114 519.251 720.72 521.64 720.72 524.456C720.72 526.973 721.061 529.224 721.744 531.208C722.448 533.171 723.536 534.728 725.008 535.88C726.48 537.032 728.378 537.608 730.704 537.608ZM761.364 541.352C759.785 541.352 758.484 541.128 757.46 540.68C756.457 540.211 755.668 539.571 755.092 538.76C754.537 537.949 754.153 537.021 753.94 535.976C753.727 534.931 753.62 533.832 753.62 532.68V493.448H758.548V532.264C758.548 534.077 758.889 535.411 759.572 536.264C760.255 537.096 761.151 537.544 762.26 537.608L764.116 537.64V540.904C763.647 541.053 763.167 541.16 762.676 541.224C762.185 541.309 761.748 541.352 761.364 541.352Z" fill="black"/>
<path d="M78.5 172.6V276H63.3V172.6H78.5ZM79 131.5V148.7H62.6V131.5H79ZM153.33 278C146.996 278 141.663 277.167 137.33 275.5C133.063 273.767 129.596 271.633 126.93 269.1C124.263 266.567 122.23 264 120.83 261.4C119.43 258.8 118.43 256.6 117.83 254.8L116.23 276H103.93V127.4H119.73V189.6C120.463 188.067 121.696 186.233 123.43 184.1C125.163 181.967 127.43 179.867 130.23 177.8C133.03 175.733 136.43 174.033 140.43 172.7C144.43 171.3 149.063 170.6 154.33 170.6C167.263 170.6 177.596 175.067 185.33 184C193.063 192.933 196.93 206.233 196.93 223.9C196.93 234.767 195.296 244.267 192.03 252.4C188.83 260.467 183.996 266.767 177.53 271.3C171.13 275.767 163.063 278 153.33 278ZM150.83 265.6C159.83 265.6 167.096 262.167 172.63 255.3C178.23 248.433 181.03 237.633 181.03 222.9C181.03 210.5 178.463 200.767 173.33 193.7C168.196 186.633 160.563 183.1 150.43 183.1C143.03 183.1 137.096 184.7 132.63 187.9C128.163 191.033 124.896 195.567 122.83 201.5C120.83 207.433 119.796 214.567 119.73 222.9C119.73 237.967 122.096 248.867 126.83 255.6C131.563 262.267 139.563 265.6 150.83 265.6ZM252.884 170.6C260.018 170.6 266.484 171.933 272.284 174.6C278.084 177.267 282.884 181.1 286.684 186.1C290.484 191.033 292.918 197 293.984 204H279.684C279.018 200.133 277.518 196.667 275.184 193.6C272.851 190.467 269.784 188 265.984 186.2C262.251 184.4 257.918 183.5 252.984 183.5C243.584 183.5 235.918 186.867 229.984 193.6C224.118 200.267 221.184 210.567 221.184 224.5C221.184 236.967 223.851 246.967 229.184 254.5C234.584 261.967 242.584 265.7 253.184 265.7C258.118 265.7 262.451 264.8 266.184 263C269.984 261.133 273.051 258.667 275.384 255.6C277.718 252.467 279.184 249.033 279.784 245.3H293.884C292.884 252.1 290.451 257.967 286.584 262.9C282.718 267.767 277.884 271.5 272.084 274.1C266.351 276.7 259.951 278 252.884 278C243.684 278 235.551 276 228.484 272C221.418 268 215.884 262.033 211.884 254.1C207.951 246.167 205.984 236.333 205.984 224.6C205.984 213.867 207.784 204.467 211.384 196.4C214.984 188.267 220.251 181.933 227.184 177.4C234.184 172.867 242.751 170.6 252.884 170.6ZM358.45 217.9V230.6L308.75 230.7V218L358.45 217.9ZM376.859 276V172.6H391.659V191.3C393.393 186.433 395.826 182.5 398.959 179.5C402.159 176.433 405.726 174.2 409.659 172.8C413.659 171.333 417.693 170.6 421.759 170.6C423.426 170.6 425.059 170.733 426.659 171C428.259 171.2 429.526 171.567 430.459 172.1V187.3C429.393 186.767 427.959 186.4 426.159 186.2C424.426 186 422.959 185.9 421.759 185.9C418.093 185.7 414.526 185.967 411.059 186.7C407.593 187.433 404.426 188.733 401.559 190.6C398.759 192.467 396.526 194.967 394.859 198.1C393.259 201.233 392.459 205.067 392.459 209.6V276H376.859ZM478.241 278C471.041 278 464.407 276.9 458.341 274.7C452.341 272.433 447.374 269 443.441 264.4C439.574 259.733 437.141 253.8 436.141 246.6H450.641C451.574 250.733 453.274 254.233 455.741 257.1C458.207 259.967 461.341 262.167 465.141 263.7C469.007 265.167 473.374 265.9 478.241 265.9C485.574 265.9 491.474 264.5 495.941 261.7C500.407 258.833 502.641 254.467 502.641 248.6C502.641 244.533 501.474 241.267 499.141 238.8C496.874 236.333 493.407 234.533 488.741 233.4L466.441 227.7C458.307 225.633 451.841 222.533 447.041 218.4C442.241 214.2 439.807 208.367 439.741 200.9C439.741 194.967 441.141 189.733 443.941 185.2C446.807 180.667 451.074 177.1 456.741 174.5C462.407 171.9 469.507 170.6 478.041 170.6C488.907 170.6 497.674 173.033 504.341 177.9C511.007 182.767 514.541 190.033 514.941 199.7H500.741C500.074 194.433 497.807 190.267 493.941 187.2C490.074 184.067 484.741 182.5 477.941 182.5C470.941 182.5 465.241 183.933 460.841 186.8C456.507 189.667 454.341 194.1 454.341 200.1C454.341 204.1 455.841 207.233 458.841 209.5C461.841 211.7 466.207 213.533 471.941 215L493.741 220.7C498.274 221.9 502.007 223.5 504.941 225.5C507.941 227.433 510.307 229.633 512.041 232.1C513.841 234.5 515.107 237.067 515.841 239.8C516.641 242.533 517.041 245.167 517.041 247.7C517.041 253.9 515.541 259.267 512.541 263.8C509.541 268.333 505.141 271.833 499.341 274.3C493.607 276.767 486.574 278 478.241 278Z" fill="black"/>
<defs>
<clipPath id="clip0_1401_1739">
<rect width="205" height="122" fill="white" transform="translate(1016 419)"/>
</clipPath>
</defs>
</svg>
