<svg width="144" height="52" viewBox="0 0 371 136" fill="none" xmlns="http://www.w3.org/2000/svg">
<path opacity="0.5" d="M127.514 126.472C127.514 126.472 130.646 130.432 136.298 130.432C141.662 130.432 144.794 126.976 144.794 122.908C144.794 114.52 132.77 115.384 132.77 111.028C132.77 109.408 134.354 108.292 136.514 108.292C138.206 108.292 139.898 109.084 139.898 110.272V111.424H144.146V109.048C144.146 105.412 139.538 104.008 136.55 104.008C131.618 104.008 128.018 107.068 128.018 111.208C128.018 119.164 140.042 118.804 140.042 123.16C140.042 125.14 138.314 126.184 136.37 126.184C132.806 126.184 130.178 123.16 130.178 123.16L127.514 126.472ZM169.592 130H174.308V118.84L180.356 109.3C180.824 108.58 181.04 108.436 181.832 108.436H182.66V104.44H180.248C178.592 104.44 177.836 104.692 176.9 106.312L173.552 111.928C172.652 113.44 172.004 114.808 172.004 114.808H171.932C171.932 114.808 171.284 113.404 170.384 111.928L167 106.312C166.028 104.692 165.308 104.44 163.652 104.44H161.24V108.436H162.068C162.86 108.436 163.076 108.58 163.544 109.3L169.592 118.84V130ZM198.94 126.472C198.94 126.472 202.072 130.432 207.724 130.432C213.088 130.432 216.22 126.976 216.22 122.908C216.22 114.52 204.196 115.384 204.196 111.028C204.196 109.408 205.78 108.292 207.94 108.292C209.632 108.292 211.324 109.084 211.324 110.272V111.424H215.572V109.048C215.572 105.412 210.964 104.008 207.976 104.008C203.044 104.008 199.444 107.068 199.444 111.208C199.444 119.164 211.468 118.804 211.468 123.16C211.468 125.14 209.74 126.184 207.796 126.184C204.232 126.184 201.604 123.16 201.604 123.16L198.94 126.472ZM241.702 130H246.418V108.436H250.342C250.846 108.436 251.134 108.724 251.134 109.228V110.776H255.274V106.744C255.274 105.052 254.698 104.44 252.97 104.44H235.15C233.422 104.44 232.846 105.052 232.846 106.744V110.776H236.986V109.228C236.986 108.724 237.274 108.436 237.778 108.436H241.702V130ZM274.149 127.552C274.149 129.28 274.869 130 276.597 130H288.189C289.881 130 290.637 129.28 290.637 127.552V123.664H286.353V125.212C286.353 125.716 286.065 126.004 285.561 126.004H279.657C279.153 126.004 278.865 125.716 278.865 125.212V119.128H287.145V115.132H278.865V108.436H284.625C285.129 108.436 285.417 108.724 285.417 109.228V110.776H289.701V106.888C289.701 105.196 288.945 104.44 287.253 104.44H271.809V108.436H274.149V127.552ZM306.806 130H310.874C312.566 130 313.178 129.28 313.322 127.552L314.15 116.176C314.294 114.484 314.186 112.18 314.186 112.18H314.258C314.258 112.18 315.014 114.736 315.662 116.176L319.91 125.608H323.726L327.974 116.176C328.622 114.736 329.378 112.216 329.378 112.216H329.45C329.45 112.216 329.342 114.484 329.486 116.176L330.35 127.552C330.494 129.28 331.07 130 332.762 130H336.83V126.004H335.714C335.21 126.004 334.958 125.716 334.922 125.212L333.266 104.44H328.37L323.114 116.608C322.502 118.084 321.854 120.028 321.854 120.028H321.782C321.782 120.028 321.134 118.084 320.522 116.608L315.266 104.44H310.37L308.714 125.212C308.678 125.716 308.426 126.004 307.922 126.004H306.806V130ZM353.394 126.472C353.394 126.472 356.526 130.432 362.178 130.432C367.542 130.432 370.674 126.976 370.674 122.908C370.674 114.52 358.65 115.384 358.65 111.028C358.65 109.408 360.234 108.292 362.394 108.292C364.086 108.292 365.778 109.084 365.778 110.272V111.424H370.026V109.048C370.026 105.412 365.418 104.008 362.43 104.008C357.498 104.008 353.898 107.068 353.898 111.208C353.898 119.164 365.922 118.804 365.922 123.16C365.922 125.14 364.194 126.184 362.25 126.184C358.686 126.184 356.058 123.16 356.058 123.16L353.394 126.472Z" fill="#073387"/>
<path d="M0 34.3607H6.21613V26.921H0V34.3607ZM0.175102 88.4513H6.12858V44.4261H0.175102V88.4513Z" fill="#073387"/>
<path d="M25.7771 88.4514H31.7305V67.3577C31.7305 65.2572 31.9056 63.2441 32.4309 61.4061C34.4446 54.1415 40.9234 48.9775 48.4528 48.9775C56.9453 48.9775 57.9959 55.1043 57.9959 62.0188V88.4514H63.9493V60.4433C63.9493 49.5902 60.0971 43.3759 49.2408 43.3759C38.8222 43.3759 33.2189 50.4654 31.643 54.4916H31.4679C31.4679 54.4916 31.643 52.9161 31.643 50.9906V44.4262H25.7771V88.4514Z" fill="#073387"/>
<path d="M120.966 66.22C120.966 79.5239 131.385 89.5017 144.255 89.5017C157.125 89.5017 167.544 79.5239 167.544 66.22C167.544 53.1787 157.125 43.3759 144.255 43.3759C131.385 43.3759 120.966 53.1787 120.966 66.22ZM127.095 66.22C127.095 56.2421 134.799 48.8025 144.255 48.8025C153.711 48.8025 161.415 56.2421 161.415 66.22C161.415 76.4605 153.711 84.1627 144.255 84.1627C134.799 84.1627 127.095 76.4605 127.095 66.22Z" fill="#073387"/>
<path d="M183.922 88.4513H189.875V69.896C189.875 67.0951 190.226 64.1193 191.101 61.3185C193.027 54.8416 197.667 49.9402 203.883 49.9402C205.022 49.9402 206.072 50.1152 206.072 50.1152V44.251C206.072 44.251 204.934 43.9885 203.708 43.9885C196.792 43.9885 191.889 49.0649 189.788 55.7169H189.613C189.613 55.7169 189.788 54.1414 189.788 52.2158V44.4261H183.922V88.4513Z" fill="#073387"/>
<path d="M220.382 88.4514H226.336V67.6204C226.336 65.6073 226.511 63.5942 226.948 61.7562C228.787 55.0168 234.215 48.8025 241.394 48.8025C249.712 48.8025 250.675 55.2793 250.675 61.9313V88.4514H256.628V67.6204C256.628 65.2572 256.803 63.1566 257.416 61.2311C259.08 54.7542 264.595 48.8025 271.337 48.8025C279.392 48.8025 280.88 54.7542 280.88 61.9313V88.4514H286.833V60.4433C286.833 49.5902 282.894 43.3759 272.212 43.3759C264.771 43.3759 258.379 48.4524 256.015 54.4041H255.84C254.527 47.1395 250.325 43.3759 242.182 43.3759C235.353 43.3759 228.349 48.5399 226.248 54.4916H226.073C226.073 54.4916 226.248 52.9161 226.248 50.9906V44.4262H220.382V88.4514Z" fill="#073387"/>
<path d="M302.244 76.4605C302.244 85.213 309.861 89.5017 317.215 89.5017C328.246 89.5017 331.924 79.9615 331.924 79.9615H332.099C332.099 79.9615 331.924 81.4494 331.924 83.6375V88.4514H337.614V60.2683C337.614 49.2401 331.748 43.3759 321.155 43.3759C311.262 43.3759 305.483 48.3648 305.483 48.3648L308.285 52.9161C308.285 52.9161 313.45 48.7149 320.717 48.7149C327.021 48.7149 331.661 51.6033 331.661 60.0932V61.2311H329.209C321.593 61.2311 302.244 61.5812 302.244 76.4605ZM308.372 76.1104C308.372 66.395 322.205 66.1325 329.122 66.1325H331.661V68.058C331.661 75.6727 326.583 84.4253 318.178 84.4253C311.612 84.4253 308.372 80.224 308.372 76.1104Z" fill="#073387"/>
<path d="M356.134 78.0358C356.134 87.6636 362.613 88.8014 366.29 88.8014C367.428 88.8014 368.479 88.6264 368.479 88.6264V83.2873C368.479 83.2873 367.778 83.3749 366.991 83.3749C364.714 83.3749 362.088 82.4996 362.088 76.7229V26.921H356.134V78.0358Z" fill="#073387"/>
<path fill-rule="evenodd" clip-rule="evenodd" d="M113.664 3.66276C118.004 1.35979 122.109 0.23877 125.992 0.23877C129.92 0.23877 133.049 1.15375 135.461 2.90066L135.482 2.91476C137.863 4.55716 138.973 6.60676 138.973 9.12346C138.973 11.2838 138.396 13.1007 137.272 14.6251L137.251 14.6564C136.206 16.1831 135.094 16.7792 133.912 16.7792C133.194 16.7792 132.737 16.5179 132.394 15.9576C131.881 15.0118 131.131 13.341 130.139 10.9063C129.29 8.73686 128.221 6.99756 126.895 5.76176C125.585 4.35986 123.887 3.66996 121.895 3.66996C118.507 3.66996 115.704 5.55196 113.479 8.93776L113.467 8.95636C111.384 12.2718 109.347 17.3952 107.337 24.2497C106.24 27.9969 105.368 31.4789 104.724 34.6944C104.544 35.4166 104.406 36.0035 104.312 36.45C104.226 36.8572 104.152 37.2564 104.152 37.5267V37.7998C104.152 38.5465 104.403 39.2746 105.044 39.7786C105.636 40.2434 106.398 40.3857 107.148 40.3857C108.815 40.3857 111.2 40.2935 114.291 40.1119L120.817 39.9787L120.868 40.0804L120.993 40.2048C120.997 40.2089 121.017 40.229 121.038 40.2932C121.061 40.3628 121.085 40.4814 121.085 40.6674C121.085 41.0256 120.821 41.7814 119.921 43.0417L119.906 43.0633L119.891 43.0856C119.515 43.6715 119.187 44.0483 118.919 44.2689C118.654 44.4874 118.514 44.4993 118.482 44.4993L106.998 44.7727C105.469 44.7741 104.139 45.0079 103.159 45.6202L103.131 45.6379L103.104 45.6574C102.209 46.2969 101.644 47.2694 101.326 48.428C95.5787 67.9336 94.3511 73.9673 90.5574 92.6131C90.378 93.4951 90.1929 94.4051 90.0013 95.3461L89.9962 95.3711L89.9922 95.3961C89.4791 98.7071 88.0411 102.695 86.3861 106.469C84.7383 110.226 82.9069 113.701 81.6514 115.97C79.1601 120.472 76.4976 124.074 73.675 126.802L73.662 126.815C70.8992 129.577 68.2194 131.589 65.6263 132.885C63.4685 133.963 61.7542 134.712 60.4646 135.153L59.8877 133.744C60.9721 133.067 62.1732 132.096 63.485 130.862C65.2338 129.317 66.8971 127.239 68.4853 124.661C70.1891 122.053 71.726 118.873 73.1044 115.136C74.5702 111.518 77.5585 102.915 78.3627 97.9301L88.9419 49.0039C89.0692 48.5902 89.1139 48.119 89.1139 47.6317C89.1139 46.8608 88.7989 46.159 88.1192 45.7058C87.517 45.3043 86.7508 45.1822 85.9818 45.1822L77.78 45.3189C77.2189 45.3179 76.9538 45.2123 76.8377 45.1361C76.7693 45.0019 76.6875 44.728 76.6875 44.2178C76.6875 43.6168 76.9231 42.9394 77.5387 42.1684C78.2017 41.3599 78.8964 40.9963 79.6355 40.9297L88.5187 40.5197L88.5476 40.5168C90.1324 40.3584 90.9881 39.0646 91.3961 37.5425L92.4843 33.734C94.8244 25.9058 97.8691 19.5237 101.595 14.555C105.442 9.45556 109.468 5.84816 113.657 3.66666L113.664 3.66276Z" fill="#073387"/>
</svg>
