<svg width="48" height="48" viewBox="0 0 48 48" fill="none" xmlns="http://www.w3.org/2000/svg">
<g clip-path="url(#clip0)">
<path opacity="0.2" fill-rule="evenodd" clip-rule="evenodd" d="M9 36.9923C10.656 36.9923 12 38.3363 12 39.9923C12 41.6483 10.656 42.9923 9 42.9923C7.344 42.9923 6 41.6483 6 39.9923C6 38.3363 7.344 36.9923 9 36.9923ZM41 36.9923C42.656 36.9923 44 38.3363 44 39.9923C44 41.6483 42.656 42.9923 41 42.9923C39.344 42.9923 38 41.6483 38 39.9923C38 38.3363 39.344 36.9923 41 36.9923ZM25 4.99231C26.656 4.99231 28 6.33631 28 7.99231C28 9.64831 26.656 10.9923 25 10.9923C23.344 10.9923 22 9.64831 22 7.99231C22 6.33631 23.344 4.99231 25 4.99231Z" fill="white"/>
<path opacity="0.2" fill-rule="evenodd" clip-rule="evenodd" d="M25 12L12 40H36L38.279 36.673L26 12H25Z" fill="white"/>
<path opacity="0.5" fill-rule="evenodd" clip-rule="evenodd" d="M23.812 14.593L36.305 39.578L38.295 36.673L26.016 12H25.016L23.812 14.593Z" fill="white"/>
<path opacity="0.5" fill-rule="evenodd" clip-rule="evenodd" d="M8.06104 37.1633C8.37404 37.0523 8.71004 36.9923 9.06104 36.9923C10.717 36.9923 12.061 38.3363 12.061 39.9923C12.061 41.6483 10.717 42.9923 9.06104 42.9923C8.71004 42.9923 8.37404 42.9323 8.06104 42.8213C9.22604 42.4093 10.061 41.2973 10.061 39.9923C10.061 38.6873 9.22604 37.5753 8.06104 37.1633ZM40.061 37.1633C40.374 37.0523 40.71 36.9923 41.061 36.9923C42.717 36.9923 44.061 38.3363 44.061 39.9923C44.061 41.6483 42.717 42.9923 41.061 42.9923C40.71 42.9923 40.374 42.9323 40.061 42.8213C41.226 42.4093 42.061 41.2973 42.061 39.9923C42.061 38.6873 41.226 37.5753 40.061 37.1633ZM24.061 5.16331C24.374 5.05231 24.71 4.99231 25.061 4.99231C26.717 4.99231 28.061 6.33631 28.061 7.99231C28.061 9.64831 26.717 10.9923 25.061 10.9923C24.71 10.9923 24.374 10.9323 24.061 10.8213C25.226 10.4093 26.061 9.29731 26.061 7.99231C26.061 6.68731 25.226 5.57531 24.061 5.16331Z" fill="white"/>
<path fill-rule="evenodd" clip-rule="evenodd" d="M4.645 43.706C5.532 44.51 6.709 45 8 45C10.76 45 13 42.76 13 40C13 37.24 10.76 35 8 35C6.78 35 5.66101 35.438 4.79201 36.165C4.36901 36.52 4.313 37.151 4.668 37.574C5.022 37.997 5.653 38.053 6.076 37.699C6.597 37.263 7.268 37 8 37C9.656 37 11 38.344 11 40C11 41.656 9.656 43 8 43C7.226 43 6.52 42.706 5.987 42.224C5.578 41.853 4.946 41.884 4.575 42.293C4.204 42.703 4.236 43.335 4.645 43.706ZM42.013 42.224C41.48 42.706 40.774 43 40 43C38.344 43 37 41.656 37 40C37 38.344 38.344 37 40 37C40.732 37 41.403 37.263 41.924 37.699C42.347 38.053 42.978 37.997 43.332 37.574C43.687 37.151 43.631 36.52 43.208 36.165C42.339 35.438 41.22 35 40 35C37.24 35 35 37.24 35 40C35 42.76 37.24 45 40 45C41.291 45 42.468 44.51 43.355 43.706C43.764 43.335 43.796 42.703 43.425 42.293C43.054 41.884 42.422 41.853 42.013 42.224ZM4.006 39H3.994C3.445 39.003 3 39.45 3 40C3 40.405 3.242 40.755 3.589 40.912C3.714 40.968 3.853 41 4 41H4.006C4.555 40.997 5 40.55 5 40C5 39.45 4.555 39.003 4.006 39ZM44.006 39C44.555 39.003 45 39.45 45 40C45 40.55 44.555 40.997 44.006 41H44C43.64 41 43.324 40.809 43.148 40.524L43.145 40.518C43.053 40.367 43 40.19 43 40C43 39.45 43.445 39.003 43.994 39H44.006ZM34.083 39H13.917C13.972 39.325 14 39.659 14 40C14 40.341 13.972 40.675 13.917 41H34.083C34.028 40.675 34 40.341 34 40C34 39.659 34.028 39.325 34.083 39ZM27.54 12.844C27.004 13.236 26.401 13.541 25.752 13.74L36.46 35.156C36.996 34.764 37.599 34.459 38.248 34.26L27.54 12.844ZM20.46 12.844L9.752 34.26C10.401 34.458 11.004 34.764 11.54 35.156L22.248 13.74C21.599 13.541 20.996 13.236 20.46 12.844ZM20.294 4.645C19.49 5.532 19 6.709 19 8C19 10.76 21.24 13 24 13C26.76 13 29 10.76 29 8C29 6.78 28.562 5.661 27.835 4.792C27.48 4.369 26.849 4.313 26.426 4.668C26.003 5.022 25.947 5.653 26.301 6.076C26.737 6.597 27 7.268 27 8C27 9.656 25.656 11 24 11C22.344 11 21 9.656 21 8C21 7.226 21.294 6.52 21.776 5.987C22.147 5.578 22.116 4.946 21.707 4.575C21.297 4.204 20.665 4.236 20.294 4.645ZM23.101 3.561C23.036 3.694 23 3.843 23 4C23 4.552 23.448 5 24 5C24.552 5 25 4.552 25 4C25 3.843 24.964 3.694 24.899 3.561C24.736 3.229 24.395 3 24 3C23.605 3 23.264 3.229 23.101 3.561Z" fill="white"/>
</g>
<defs>
<clipPath id="clip0">
<rect width="48" height="48" fill="white"/>
</clipPath>
</defs>
</svg>
